HIERARCHY
ROOT Hips
{
	OFFSET 0.000000 0.000000 0.000000
	CHANNELS 6 Xposition Yposition Zposition Zrotation Yrotation Xrotation 
	JOINT LHipJoint
	{
		OFFSET 0.000000 0.000000 0.000000
		CHANNELS 3 Zrotation Yrotation Xrotation
		JOINT LeftUpLeg
		{
			OFFSET 1.363060 -1.794630 0.839290
			CHANNELS 3 Zrotation Yrotation Xrotation
			JOINT LeftLeg
			{
				OFFSET 2.448110 -6.726130 0.000000
				CHANNELS 3 Zrotation Yrotation Xrotation
				JOINT LeftFoot
				{
					OFFSET 2.562200 -7.039590 0.000000
					CHANNELS 3 Zrotation Yrotation Xrotation
					JOINT LeftToeBase
					{
						OFFSET 0.157640 -0.433110 2.322550
						CHANNELS 3 Zrotation Yrotation Xrotation
						End Site
						{
							OFFSET 0.000000 0.000000 0.000000
						}
					}
				}
			}
		}
	}
	JOINT RHipJoint
	{
		OFFSET 0.000000 0.000000 0.000000
		CHANNELS 3 Zrotation Yrotation Xrotation
		JOINT RightUpLeg
		{
			OFFSET -1.305520 -1.794630 0.839290
			CHANNELS 3 Zrotation Yrotation Xrotation
			JOINT RightLeg
			{
				OFFSET -2.542530 -6.985550 0.000000
				CHANNELS 3 Zrotation Yrotation Xrotation
				JOINT RightFoot
				{
					OFFSET -2.568260 -7.056230 0.000000
					CHANNELS 3 Zrotation Yrotation Xrotation
					JOINT RightToeBase
					{
						OFFSET -0.164730 -0.452590 2.363150
						CHANNELS 3 Zrotation Yrotation Xrotation
						End Site
						{
							OFFSET 0.000000 0.000000 0.000000
						}
					}
				}
			}
		}
	}
	JOINT LowerBack
	{
		OFFSET 0.000000 0.000000 0.000000
		CHANNELS 3 Zrotation Yrotation Xrotation
		JOINT Spine
		{
			OFFSET 0.028270 2.035590 -0.193380
			CHANNELS 3 Zrotation Yrotation Xrotation
			JOINT Spine1
			{
				OFFSET 0.056720 2.048850 -0.042750
				CHANNELS 3 Zrotation Yrotation Xrotation
				JOINT Neck
				{
					OFFSET 0.000000 0.000000 0.000000
					CHANNELS 3 Zrotation Yrotation Xrotation
					JOINT Neck1
					{
						OFFSET -0.054170 1.746240 0.172020
						CHANNELS 3 Zrotation Yrotation Xrotation
						JOINT Head
						{
							OFFSET 0.104070 1.761360 -0.123970
							CHANNELS 3 Zrotation Yrotation Xrotation
							End Site
							{
								OFFSET 0.000000 0.000000 0.000000
							}
						}
					}
				}
				JOINT LeftShoulder
				{
					OFFSET 0.000000 0.000000 0.000000
					CHANNELS 3 Zrotation Yrotation Xrotation
					JOINT LeftArm
					{
						OFFSET 3.362410 1.200890 -0.311210
						CHANNELS 3 Zrotation Yrotation Xrotation
						JOINT LeftForeArm
						{
							OFFSET 4.983000 -0.000000 -0.000000
							CHANNELS 3 Zrotation Yrotation Xrotation
							JOINT LeftHand
							{
								OFFSET 3.483560 -0.000000 -0.000000
								CHANNELS 3 Zrotation Yrotation Xrotation
								JOINT LeftFingerBase
								{
									OFFSET 0.000000 0.000000 0.000000
									CHANNELS 3 Zrotation Yrotation Xrotation
									JOINT LeftHandIndex1
									{
										OFFSET 0.715260 -0.000000 -0.000000
										CHANNELS 3 Zrotation Yrotation Xrotation
										End Site
										{
											OFFSET 0.000000 0.000000 0.000000
										}
									}
								}
								JOINT LThumb
								{
									OFFSET 0.000000 0.000000 0.000000
									CHANNELS 3 Zrotation Yrotation Xrotation
									End Site
									{
										OFFSET 0.000000 0.000000 0.000000
									}
								}
							}
						}
					}
				}
				JOINT RightShoulder
				{
					OFFSET 0.000000 0.000000 0.000000
					CHANNELS 3 Zrotation Yrotation Xrotation
					JOINT RightArm
					{
						OFFSET -3.136600 1.374050 -0.404650
						CHANNELS 3 Zrotation Yrotation Xrotation
						JOINT RightForeArm
						{
							OFFSET -5.241900 -0.000000 -0.000000
							CHANNELS 3 Zrotation Yrotation Xrotation
							JOINT RightHand
							{
								OFFSET -3.444170 -0.000000 -0.000000
								CHANNELS 3 Zrotation Yrotation Xrotation
								JOINT RightFingerBase
								{
									OFFSET 0.000000 0.000000 0.000000
									CHANNELS 3 Zrotation Yrotation Xrotation
									JOINT RightHandIndex1
									{
										OFFSET -0.622530 -0.000000 -0.000000
										CHANNELS 3 Zrotation Yrotation Xrotation
										End Site
										{
											OFFSET 0.000000 0.000000 0.000000
										}
									}
								}
								JOINT RThumb
								{
									OFFSET 0.000000 0.000000 0.000000
									CHANNELS 3 Zrotation Yrotation Xrotation
									End Site
									{
										OFFSET 0.000000 0.000000 0.000000
									}
								}
							}
						}
					}
				}
			}
		}
	}
}
MOTION
Frames: 4
Frame Time: 0.008333
2.828720 16.510959 1.884875 20.341453 -63.562784 15.210361 -8.903242 0.041879 3.119166 -22.928765 -8.566840 -54.857825 -3.476221 1.335928 33.964337 0.525793 0.137629 -8.986730 0.036900 0.000000 -38.445099 8.519296 0.530790 -3.659375 14.631830 -39.444125 -62.906260 6.083828 -5.343036 34.795502 0.089172 2.776643 -5.072851 0.066000 -0.000000 -72.539100 4.596128 4.209515 0.983597 2.321468 4.147516 -2.167600 6.413659 3.803173 2.133965 -13.099861 -18.390904 -12.040476 3.146743 0.379747 -1.668152 0.000000 0.000000 0.000000 7.312244 13.981682 -3.178854 -85.344220 -16.752229 19.602924 175.965207 -51.539658 179.883725 6.748242 -4.823905 -0.325600 0.196275 0.818502 -0.000000 0.000000 0.000000 0.000000 0.000000 0.000000 0.000000 -34.065739 -9.154249 6.678726 -48.486143 35.566401 -175.503774 -5.280941 4.507119 -0.089203 -24.257606 21.731396 -5.110061 0.807774 -1.025385 -0.000000 0.000000 0.000000 0.000000 0.000000 0.000000 0.000000 
2.840609 16.502361 1.883724 20.042118 -63.637428 15.716764 -8.913545 0.022337 3.088425 -22.751840 -8.636604 -55.262748 -3.460150 1.370078 34.159925 0.532580 0.137424 -9.064699 0.033800 0.000000 -38.467300 8.496854 0.556515 -3.695267 14.748131 -39.074122 -63.116573 6.050229 -5.368588 35.039366 0.036750 2.486354 -5.155799 0.038200 0.000000 -72.471600 4.657321 4.137281 1.088460 2.271012 4.071061 -2.162306 6.128387 3.733273 2.188136 -12.297756 -18.562309 -11.971771 2.975308 0.363212 -1.639726 0.000000 0.000000 0.000000 7.828792 13.854603 -3.171296 -86.001645 -15.396253 18.930971 175.840094 -51.340502 179.881513 6.754045 -4.986115 -0.335159 0.204956 0.826409 -0.000000 0.000000 0.000000 0.000000 0.000000 0.000000 0.000000 -32.862007 -9.473692 6.439107 -50.703153 35.174025 -173.789734 -5.139857 5.283106 -0.092863 -22.232000 21.686080 -4.672855 0.746129 -1.054767 -0.000000 0.000000 0.000000 0.000000 0.000000 0.000000 0.000000 
2.854213 16.493095 1.881413 19.764711 -63.754307 16.202644 -8.921692 -0.004661 3.051174 -22.567953 -8.711928 -55.679861 -3.438492 1.403131 34.373220 0.549939 0.192573 -9.158796 0.030500 0.000000 -38.467200 8.478990 0.584007 -3.725618 14.830579 -38.653003 -63.328235 6.012621 -5.397010 35.299454 -0.018426 2.186370 -5.248215 0.010000 0.000000 -72.385900 4.685307 4.068255 1.206635 2.216105 3.999774 -2.162833 5.825127 3.673120 2.181384 -11.517044 -18.511347 -11.821132 2.774745 0.341811 -1.586154 0.000000 0.000000 0.000000 8.363920 13.637961 -3.149298 -86.635936 -14.096828 18.254141 175.720597 -51.226094 179.878296 6.908305 -5.086663 -0.349089 0.206889 0.831800 -0.000000 0.000000 0.000000 0.000000 0.000000 0.000000 0.000000 -31.659552 -9.569934 6.114244 -52.386263 34.977395 -169.625586 -4.950168 6.371149 -0.098608 -20.761569 20.782578 -4.183257 0.705077 -1.056425 -0.000000 0.000000 0.000000 0.000000 0.000000 0.000000 0.000000 
2.869198 16.482964 1.877711 19.520709 -63.906294 16.657855 -8.925997 -0.036792 3.010760 -22.383627 -8.797562 -56.107685 -3.412362 1.435294 34.603141 0.576938 0.297824 -9.266754 0.027100 0.000000 -38.442500 8.465592 0.612944 -3.749690 14.889564 -38.199642 -63.557685 5.972972 -5.429907 35.579966 -0.073580 1.893352 -5.353801 -0.017300 0.000000 -72.282100 4.674631 3.998551 1.332944 2.165066 3.930857 -2.168318 5.535961 3.618768 2.113367 -10.810651 -18.268953 -11.573082 2.567171 0.317286 -1.504510 0.000000 0.000000 0.000000 8.874955 13.362816 -3.104314 -87.219733 -12.899872 17.599540 175.615029 -51.209852 179.874153 7.214187 -5.116737 -0.367186 0.201523 0.834496 -0.000000 0.000000 0.000000 0.000000 0.000000 0.000000 0.000000 -30.580199 -9.468279 5.693515 -53.272956 35.112759 -162.773875 -4.665930 8.035080 -0.108398 -20.151381 18.827516 -3.683640 0.696450 -1.022795 -0.000000 0.000000 0.000000 0.000000 0.000000 0.000000 0.000000 
